<?xml version="1.0" encoding="iso-8859-1"?>
<!-- Uploaded to: SVG Repo, www.svgrepo.com, Generator: SVG Repo Mixer Tools -->
<svg fill="#000000" height="16" width="16" version="1.1" id="Layer_1" xmlns="http://www.w3.org/2000/svg" xmlns:xlink="http://www.w3.org/1999/xlink" 
	 viewBox="0 0 512 512" xml:space="preserve">
<g>
	<g>
		<path d="M304.552,70.621H66.207c-4.879,0-8.828,3.953-8.828,8.828V291.31c0,4.875,3.948,8.828,8.828,8.828h238.345
			c4.879,0,8.828-3.953,8.828-8.828V79.448C313.379,74.573,309.431,70.621,304.552,70.621z M295.724,282.483H75.034V88.276h220.69
			V282.483z"/>
	</g>
</g>
<g>
	<g>
		<path d="M185.379,308.966c-46.241,0-83.862,37.621-83.862,83.862s37.621,83.862,83.862,83.862s83.862-37.621,83.862-83.862
			S231.621,308.966,185.379,308.966z M185.379,459.034c-36.509,0-66.207-29.698-66.207-66.207s29.698-66.207,66.207-66.207
			c36.509,0,66.207,29.698,66.207,66.207S221.888,459.034,185.379,459.034z"/>
	</g>
</g>
<g>
	<g>
		<path d="M125.414,99.69c-3.448-3.448-9.034-3.448-12.483,0l-26.483,26.483c-3.448,3.448-3.448,9.034,0,12.483
			c1.724,1.724,3.983,2.586,6.241,2.586c2.259,0,4.517-0.862,6.241-2.586l26.483-26.483
			C128.862,108.724,128.862,103.138,125.414,99.69z"/>
	</g>
</g>
<g>
	<g>
		<path d="M178.379,108.517c-3.448-3.448-9.034-3.448-12.483,0l-70.621,70.621c-3.448,3.448-3.448,9.034,0,12.483
			c1.724,1.724,3.983,2.586,6.241,2.586c2.258,0,4.517-0.862,6.241-2.586L178.379,121
			C181.828,117.552,181.828,111.966,178.379,108.517z"/>
	</g>
</g>
<g>
	<g>
		<path d="M463.448,424.977V26.483C463.448,11.879,451.603,0,437.043,0H207.371c-14.56,0-26.405,11.879-26.405,26.483v8.828H48.621
			c-14.638,0-26.552,11.905-26.552,26.543v423.604c0,14.638,11.914,26.543,26.552,26.543h273.517
			c14.638,0,26.552-11.905,26.552-26.543V61.853c0-14.638-11.914-26.543-26.552-26.543H198.621v-8.828
			c0-4.866,3.922-8.828,8.75-8.828h185.457V416.15c-15.187,3.948-26.483,17.653-26.483,34.057c0,19.47,15.836,35.31,35.31,35.31
			c8.701,0,16.573-3.282,22.735-8.518c6.166,10.336,17.343,17.346,30.23,17.346c19.474,0,35.31-15.84,35.31-35.31
			C489.931,442.63,478.636,428.926,463.448,424.977z M322.138,52.966c4.905,0,8.896,3.987,8.896,8.888v423.604
			c0,4.901-3.991,8.888-8.896,8.888H48.621c-4.905,0-8.897-3.987-8.897-8.888V61.853c0-4.901,3.991-8.888,8.897-8.888H322.138z
			 M401.655,467.862c-9.733,0-17.655-7.918-17.655-17.655c0-9.737,7.922-17.655,17.655-17.655c9.733,0,17.655,7.918,17.655,17.655
			C419.31,459.944,411.388,467.862,401.655,467.862z M410.483,416.15V17.655h26.56c4.905,0,8.75,3.879,8.75,8.828v398.495
			c-5.216,1.357-9.918,3.874-13.907,7.265C427.187,424.366,419.573,418.513,410.483,416.15z M454.621,476.69
			c-9.733,0-17.655-7.918-17.655-17.655s7.922-17.655,17.655-17.655c9.733,0,17.655,7.918,17.655,17.655
			S464.354,476.69,454.621,476.69z"/>
	</g>
</g>
</svg>